<svg width="168" height="195" viewBox="0 0 168 195" fill="none" xmlns="http://www.w3.org/2000/svg">
<rect y="18" width="168" height="168" rx="18" fill="url(#paint0_linear)"/>
<path d="M71.6875 137L53 71.1875H52.4375C53.3125 82.3958 53.75 91.1042 53.75 97.3125V137H31.875V45.625H64.75L83.8125 110.5H84.3125L103 45.625H135.938V137H113.25V96.9375C113.25 94.8542 113.271 92.5417 113.312 90C113.396 87.4583 113.688 81.2292 114.188 71.3125H113.625L95.1875 137H71.6875Z" fill="#D1B8FE"/>
<path d="M71.6875 158L53 92.1875H52.4375C53.3125 103.396 53.75 112.104 53.75 118.312V158H31.875V66.625H64.75L83.8125 131.5H84.3125L103 66.625H135.938V158H113.25V117.938C113.25 115.854 113.271 113.542 113.312 111C113.396 108.458 113.688 102.229 114.188 92.3125H113.625L95.1875 158H71.6875Z" fill="white"/>
<defs>
<linearGradient id="paint0_linear" x1="109" y1="91" x2="189.651" y2="204.32" gradientUnits="userSpaceOnUse">
<stop stop-color="#6B46C1"/>
<stop offset="1" stop-color="#44337A"/>
</linearGradient>
</defs>
</svg>
