<svg width="40" height="32" viewBox="0 0 40 32" fill="none" xmlns="http://www.w3.org/2000/svg">
<rect width="40" height="32" rx="4" fill="#44337A"/>
<path d="M14.8027 21H13.0156V17.1738C13.0156 16.7012 12.9355 16.3477 12.7754 16.1133C12.6191 15.875 12.3711 15.7559 12.0312 15.7559C11.5742 15.7559 11.2422 15.9238 11.0352 16.2598C10.8281 16.5957 10.7246 17.1484 10.7246 17.918V21H8.9375V14.4492H10.3027L10.543 15.2871H10.6426C10.8184 14.9863 11.0723 14.752 11.4043 14.584C11.7363 14.4121 12.1172 14.3262 12.5469 14.3262C13.5273 14.3262 14.1914 14.6465 14.5391 15.2871H14.6973C14.873 14.9824 15.1309 14.7461 15.4707 14.5781C15.8145 14.4102 16.2012 14.3262 16.6309 14.3262C17.373 14.3262 17.9336 14.5176 18.3125 14.9004C18.6953 15.2793 18.8867 15.8887 18.8867 16.7285V21H17.0938V17.1738C17.0938 16.7012 17.0137 16.3477 16.8535 16.1133C16.6973 15.875 16.4492 15.7559 16.1094 15.7559C15.6719 15.7559 15.3438 15.9121 15.125 16.2246C14.9102 16.5371 14.8027 17.0332 14.8027 17.7129V21ZM26.5918 21H24.8047V17.1738C24.8047 16.7012 24.7246 16.3477 24.5645 16.1133C24.4082 15.875 24.1602 15.7559 23.8203 15.7559C23.3633 15.7559 23.0312 15.9238 22.8242 16.2598C22.6172 16.5957 22.5137 17.1484 22.5137 17.918V21H20.7266V14.4492H22.0918L22.332 15.2871H22.4316C22.6074 14.9863 22.8613 14.752 23.1934 14.584C23.5254 14.4121 23.9062 14.3262 24.3359 14.3262C25.3164 14.3262 25.9805 14.6465 26.3281 15.2871H26.4863C26.6621 14.9824 26.9199 14.7461 27.2598 14.5781C27.6035 14.4102 27.9902 14.3262 28.4199 14.3262C29.1621 14.3262 29.7227 14.5176 30.1016 14.9004C30.4844 15.2793 30.6758 15.8887 30.6758 16.7285V21H28.8828V17.1738C28.8828 16.7012 28.8027 16.3477 28.6426 16.1133C28.4863 15.875 28.2383 15.7559 27.8984 15.7559C27.4609 15.7559 27.1328 15.9121 26.9141 16.2246C26.6992 16.5371 26.5918 17.0332 26.5918 17.7129V21Z" fill="#FAF5FF"/>
</svg>
